<svg width="15" height="23" viewBox="0 0 15 23" fill="none" xmlns="http://www.w3.org/2000/svg">
<path fill-rule="evenodd" clip-rule="evenodd" d="M13.5272 9.38776C13.8317 8.66622 14.0001 7.87318 14.0001 7.04082C14.0001 3.70457 11.2955 1 7.95927 1C4.62302 1 1.91846 3.70457 1.91846 7.04082C1.91846 7.87318 2.0868 8.66622 2.39131 9.38776H1.31909C1.05964 8.65368 0.918457 7.86374 0.918457 7.04082C0.918457 3.15228 4.07074 0 7.95927 0C11.8478 0 15.0001 3.15228 15.0001 7.04082C15.0001 7.86374 14.8589 8.65368 14.5995 9.38776H13.5272Z" fill="#FF5E00"/>
<path d="M7.95892 21.1224L13.5916 9.3877H14.5964L7.95892 22.9999L1.32178 9.3877H2.32627L7.95892 21.1224Z" fill="#FF5E00"/>
<circle cx="7.95924" cy="7.04079" r="1.84694" stroke="#FF5E00"/>
</svg>
